<?xml version="1.0"?>
<svg xmlns="http://www.w3.org/2000/svg" height="512px" viewBox="0 0 60 60" width="512px"><g><g id="Page-1" fill="none" fill-rule="evenodd"><g id="050---Coffee-Shop" fill="rgb(0,0,0)" fill-rule="nonzero"><path id="Shape" d="m56 15h-17.111c1.1079556-1.0824951 1.8245422-2.5026523 2.037-4.037 4.022-.316 5.037-2.718 5.715-5.177.2451773-.90308936.0549036-1.86886092-.5145032-2.61146318-.5694069-.74260226-1.452721-1.17696957-2.3884968-1.17453682h-2.738c0-1.1045695-.8954305-2-2-2h-18c-1.1045695 0-2 .8954305-2 2v8c-.0004407 1.883359.7609752 3.6868075 2.111 5h-17.111c-1.65685425 0-3 1.3431458-3 3v2.829c-.0140646 2.4115928 1.64883537 4.5093412 4 5.046v27.125h-2c-1.65685425 0-3 1.3431458-3 3v2c0 1.1045695.8954305 2 2 2h56c1.1045695 0 2-.8954305 2-2v-2c0-1.6568542-1.3431458-3-3-3h-2v-27.125c2.3511646-.5366588 4.0140646-2.6344072 4-5.046v-2.829c0-1.6568542-1.3431458-3-3-3zm-12.262-11c.3147573 0 .6111456.14819416.8.4.1878665.24245481.2508292.55912032.17.855-.62 2.265-1.243 3.462-3.708 3.698v-4.953zm-22.738 6v-3h3c.5522847 0 1-.44771525 1-1s-.4477153-1-1-1h-3v-3h18v3h-11c-.5522847 0-1 .44771525-1 1s.4477153 1 1 1h11v3c-.0033061 2.7600532-2.2399468 4.9966939-5 5h-8c-2.7600532-.0033061-4.9966939-2.2399468-5-5zm32 43h-4v-21c0-1.1045695-.8954305-2-2-2h-10c-1.1045695 0-2 .8954305-2 2v21h-19c-.5522847 0-1 .4477153-1 1s.4477153 1 1 1h41c.5522847 0 1 .4477153 1 1v2h-56v-2c0-.5522847.44771525-1 1-1h8c.5522847 0 1-.4477153 1-1s-.4477153-1-1-1h-4v-27.1c1.20125027-.232601 2.27444823-.9002341 3.014-1.875.9431247 1.2497716 2.4203154 1.9816963 3.986 1.975 1.5736302.000625 3.0575372-.7326388 4.013-1.983.9411413 1.2536934 2.4193715 1.9889155 3.987 1.983 1.5736302.000625 3.0575372-.7326388 4.013-1.983.9411413 1.2536934 2.4193715 1.9889155 3.987 1.983 1.5736302.000625 3.0575372-.7326388 4.013-1.983.9411413 1.2536934 2.4193715 1.9889155 3.987 1.983 1.5736302.000625 3.0575372-.7326388 4.013-1.983.9411413 1.2536934 2.4193715 1.9889155 3.987 1.983 1.5779826.0136897 3.0612957-.7513482 3.965-2.045.7331932 1.0035522 1.8162343 1.6954852 3.035 1.939zm-6 0h-10v-21h10zm10-32.171c.0345697 1.5861069-1.1277269 2.945133-2.7 3.157-1.0571071.1037858-2.0905825-.3576482-2.719-1.214-.3569036-.4890867-.9255378-.7787893-1.531-.78-.6504419-.0066001-1.2649611.2976873-1.654.819-.5669884.7503379-1.4530305 1.1913658-2.3935 1.1913658s-1.8265116-.4410279-2.3935-1.1913658c-.3772825-.5083364-.9729534-.8080419-1.606-.8080419s-1.2287175.2997055-1.606.8080419c-.5669568.7507275-1.4532387 1.1920277-2.394 1.1920277s-1.8270432-.4413002-2.394-1.1920277c-.3914232-.4860657-.9819231-.7687065-1.606-.7687065s-1.2145768.2826408-1.606.7687065c-.5669568.7507275-1.4532387 1.1920277-2.394 1.1920277s-1.8270432-.4413002-2.394-1.1920277c-.3914232-.4860657-.9819231-.7687065-1.606-.7687065s-1.2145768.2826408-1.606.7687065c-.5669568.7507275-1.4532387 1.1920277-2.394 1.1920277s-1.8270432-.4413002-2.394-1.1920277c-.3914232-.4860657-.9819231-.7687065-1.606-.7687065s-1.2145768.2826408-1.606.7687065c-.5669884.7503379-1.4530305 1.1913658-2.3935 1.1913658s-1.8265116-.4410279-2.3935-1.1913658c-.3884606-.5128985-.9936064-.8156562-1.637-.819h-.02c-.60528341.0009774-1.17388311.290291-1.531.779-.62770253.8590099-1.66341315 1.3213128-2.722 1.215-1.57204034-.2122944-2.73411136-1.5710567-2.7-3.157v-2.829c0-.5522847.44771525-1 1-1h52c.5522847 0 1 .4477153 1 1z" data-original="#000000" class="active-path" data-old_color="#000000" fill="#82878D"/><path id="Shape" d="m29 30h-16c-1.1045695 0-2 .8954305-2 2v16c0 1.1045695.8954305 2 2 2h16c1.1045695 0 2-.8954305 2-2v-16c0-1.1045695-.8954305-2-2-2zm0 2v12h-16v-12zm-16 16v-2h16v2z" data-original="#000000" class="active-path" data-old_color="#000000" fill="#82878D"/><path id="Shape" d="m44 46c.5522847 0 1-.4477153 1-1v-5c0-.5522847-.4477153-1-1-1s-1 .4477153-1 1v5c0 .5522847.4477153 1 1 1z" data-original="#000000" class="active-path" data-old_color="#000000" fill="#82878D"/><path id="Shape" d="m16 37c.2651948-.0000566.5195073-.1054506.707-.293l1-1c.3789722-.3923789.3735524-1.0160848-.0121814-1.4018186s-1.0094397-.3911536-1.4018186-.0121814l-1 1c-.2859079.2859943-.3714219.7160366-.216678 1.0896546.1547439.3736179.5192821.6172591.923678.6173454z" data-original="#000000" class="active-path" data-old_color="#000000" fill="#82878D"/><path id="Shape" d="m16 42c.2651948-.0000566.5195073-.1054506.707-.293l6-6c.3789722-.3923789.3735524-1.0160848-.0121814-1.4018186s-1.0094397-.3911536-1.4018186-.0121814l-6 6c-.2859079.2859943-.3714219.7160366-.216678 1.0896546.1547439.3736179.5192821.6172591.923678.6173454z" data-original="#000000" class="active-path" data-old_color="#000000" fill="#82878D"/></g></g></g> </svg>
